<?xml version="1.0" standalone="no"?>
<!DOCTYPE svg PUBLIC "-//W3C//DTD SVG 1.1//EN" "http://www.w3.org/Graphics/SVG/1.1/DTD/svg11.dtd" >
<svg xmlns="http://www.w3.org/2000/svg">
<metadata>Generated by IcoMoon</metadata>
<defs>
<font id="icomoon" horiz-adv-x="1024">
<font-face units-per-em="1024" ascent="960" descent="-64" />
<missing-glyph horiz-adv-x="1024" />
<glyph unicode="&#x20;" horiz-adv-x="512" d="" />
<glyph unicode="&#xe90c;" glyph-name="table-3" d="M960 789.334c-35.292 0-64-28.708-64-64v-277.334h-149.334c-35.292 0-64-28.708-64-64s28.708-64 64-64h106.666v-170.666h-64c-11.792 0-21.334-9.542-21.334-21.334s9.542-21.334 21.334-21.334h170.668c11.792 0 21.334 9.542 21.334 21.334s-9.542 21.334-21.334 21.334h-64v170.666h64c35.292 0 64 28.708 64 64v341.334c0 35.29-28.708 64-64 64zM277.334 448h-149.334v277.334c0 35.292-28.708 64-64 64s-64-28.708-64-64v-341.334c0-35.292 28.708-64 64-64h64v-170.666h-64c-11.792 0-21.334-9.542-21.334-21.334s9.542-21.334 21.334-21.334h170.666c11.792 0 21.334 9.542 21.334 21.334s-9.542 21.334-21.334 21.334h-64v170.666h106.666c35.292 0 64 28.708 64 64s-28.706 64-63.998 64zM569.98 472.5c18.666-11.48 39.834-24.5 80.562-24.5 40.73 0 61.896 13.020 80.562 24.5 16.52 10.146 29.562 18.166 58.23 18.166 11.792 0 21.334 9.542 21.334 21.334v64c0 47.062-38.27 85.334-85.334 85.334h-426.668c-47.062 0-85.334-38.27-85.334-85.334v-64c0-11.792 9.542-21.334 21.334-21.334 28.584 0 41.584-8.020 58.062-18.166 18.646-11.48 39.77-24.5 80.458-24.5 40.666 0 61.812 13.020 80.458 24.5 11.73 7.222 21.928 13.222 37.020 16.164v-339.33h-85.334c-11.792 0-21.334-9.542-21.334-21.334s9.542-21.334 21.334-21.334h213.334c11.792 0 21.334 9.542 21.334 21.334s-9.542 21.334-21.334 21.334h-85.334v339.212c14.858-2.978 25.016-8.902 36.65-16.046z" />
<glyph unicode="&#xe90d;" glyph-name="boiled-egg-1" d="M843.969 442.32c8.375 29.398 12.922 60.273 13.148 91.992h-691.117c0.219-31.719 4.773-62.594 13.148-91.992zM783.734 594.594c-8.469 77.547-34.414 157.836-72.945 222.984-54.328 91.844-125.086 142.422-199.234 142.422-140.789 0-252.867-185.992-272.227-365.406zM820.492 382.047h-617.867c43.289-86.266 121.789-152.781 218.516-178.906v-102.383h-5.266c-57.461 0-104.203-46.742-104.203-104.203v-60.555h399.773v60.555c0 57.453-46.742 104.203-104.203 104.203h-5.266v102.383c96.727 26.125 175.227 92.641 218.516 178.906z" />
<glyph unicode="&#xe90e;" glyph-name="chef-2" d="M861.092 122.181h-698.001c-12.84 0-23.249-10.409-23.273-23.249l-0.092-67.863c-0.022-25.385 9.84-49.25 27.772-67.204 17.954-17.978 41.795-27.864 67.183-27.864h554.728c52.364 0 94.955 42.591 94.955 94.955v67.955c0 12.862-10.407 23.271-23.271 23.271zM768.001 866.908c-14.249 0-28.887-1.431-44.387-4.318-53.249 62.092-129.567 97.41-211.613 97.41-153.999 0-279.273-125.274-279.273-279.273 0-12.84-10.431-23.273-23.273-23.273-12.84 0-23.273 10.431-23.273 23.273 0 50.387 11.592 99.138 34.455 144.886 4.069 8.136 3.022 17.887-2.66 24.977-5.681 7.045-14.978 10.183-23.795 8.023-114.34-28.523-194.182-130.386-194.182-247.704 0-96.727 54.545-184.658 140.182-228.135l-0.251-190.75c0-6.159 2.433-12.092 6.796-16.477 4.385-4.364 10.296-6.818 16.477-6.818h697.888c12.864 0 23.273 10.409 23.273 23.273v191.114c85.318 43.591 139.636 131.387 139.636 227.795-0.002 141.157-114.842 255.997-256.002 255.997zM340.591 313.636c-4.342-3.545-9.567-5.273-14.749-5.273-6.727 0-13.409 2.908-18.022 8.5-7.682 9.386-75.092 93.295-75.092 154.41 0 12.864 10.409 23.273 23.273 23.273s23.273-10.409 23.273-23.273c0-33.683 39.591-94.455 64.545-124.863 8.134-9.956 6.703-24.613-3.229-32.773zM535.272 331.636c0-12.864-10.409-23.273-23.273-23.273s-23.271 10.409-23.271 23.273v139.636c0 12.864 10.409 23.273 23.273 23.273s23.273-10.409 23.273-23.273v-139.636zM716.182 316.863c-4.615-5.592-11.273-8.5-18-8.5-5.204 0-10.431 1.728-14.749 5.273-9.932 8.16-11.387 22.817-3.251 32.749 24.956 30.478 64.545 91.318 64.545 124.887 0 12.864 10.409 23.273 23.273 23.273s23.273-10.409 23.273-23.273c0-61.113-67.41-145.023-75.092-154.41z" />
<glyph unicode="&#xe90f;" glyph-name="croissant" d="M658.21 256.289l9.086-5.516 302.351 302.89c-31.383 44.344-105.812 132.117-223.851 168.726zM960.523 459.578l-208.578-208.945c57.984-34.797 104.117-100.75 127.961-139.969 11.812-19.422 32.711-31.078 55.234-31.078 1.344 0 2.687 0.047 4.031 0.125 24.125 1.492 45.273 16.109 55.203 38.148 37.227 82.648 39.414 173.195 6.312 261.844-12.523 33.539-27.867 60.836-40.164 79.875zM423.922 271.891h176.156l94.867 504.843c-3.977 2.141-8.25 4.297-12.844 6.445-46.641 21.781-103.875 32.82-170.101 32.82s-123.453-11.047-170.101-32.82c-4.594-2.148-8.867-4.305-12.844-6.445zM356.711 250.774l9.078 5.516-87.586 466.093c-118.031-36.602-192.469-124.375-223.844-168.719zM63.484 459.578c-12.305-19.039-27.648-46.336-40.172-79.875-33.102-88.648-30.914-179.195 6.312-261.844 9.93-22.039 31.078-36.656 55.203-38.148 1.352-0.078 2.687-0.125 4.031-0.125 22.523 0 43.422 11.656 55.234 31.078 23.844 39.219 69.977 105.172 127.961 139.969z" />
<glyph unicode="&#xe910;" glyph-name="hamburger-meal" d="M91.933 233.949c-72.782 0-72.782-44.052-72.782-66.921 0-154.378 161.211-168.55 360.076-168.55h265.537c198.866 0 360.076 26.94 360.076 168.55 0 22.869-6.971 66.921-72.093 66.921h-840.815zM1024 352.238c0-25.282-20.684-45.967-45.967-45.967h-932.067c-25.282 0-45.967 20.684-45.967 45.967v34.468c0 25.282 20.684 45.967 45.967 45.967h932.067c25.282 0 45.967-20.684 45.967-45.967v-34.468zM529.852 897.522h-35.704c-198.862 0-474.993-122.907-474.993-321.773 0-22.869 6.971-66.918 72.090-66.918h840.822c72.782 0 72.782 44.049 72.782 66.918-0.003 198.866-276.134 321.773-474.996 321.773zM296.248 642.393c-19.003-31.693-51.733-46.993-73.106-34.178-21.373 12.818-23.294 48.894-4.291 80.587 19.003 31.69 51.733 46.993 73.106 34.175 21.37-12.815 23.294-48.894 4.291-80.583zM512 595.727c-23.8 0-43.097 31.281-43.097 69.868s19.297 69.868 43.097 69.868 43.097-31.281 43.097-69.868-19.297-69.868-43.097-69.868zM800.858 608.215c-21.373-12.815-54.103 2.485-73.106 34.178-19.003 31.69-17.082 67.768 4.291 80.583 21.373 12.818 54.103-2.485 73.106-34.175 19.006-31.693 17.086-67.768-4.291-80.587z" />
<glyph unicode="&#xe911;" glyph-name="hotel-bell" d="M542 716.48v63.52h90c16.582 0 30 13.418 30 30 0 82.706-67.294 150-150 150s-150-67.294-150-150c0-16.582 13.418-30 30-30h90v-63.52c-234.144-15.55-422-210.462-422-448.48 0-16.582 13.418-30 30-30h844c16.582 0 30 13.418 30 30 0 238.018-187.856 432.93-422 448.48zM964 56v32c0 16.568-13.432 30-30 30h-332v60h-180v-60h-332c-16.568 0-30-13.432-30-30v-32c-33.138 0-60-26.862-60-60v-30c0-16.568 13.432-30 30-30h964c16.568 0 30 13.432 30 30v30c0 33.138-26.862 60-60 60z" />
<glyph unicode="&#xe912;" glyph-name="juice" d="M103.248 423.699l66.659-424.994c5.408-34.488 38.396-62.705 73.305-62.705h337.101c34.909 0 67.203 28.317 71.763 62.927l55.965 424.772h-604.793zM738.073 960c-122.017 0-221.461-98.416-223.166-220.035l-397.792 0.002c-34.909 0-59.045-28.217-53.637-62.705l29.814-190.092h623.11l3.578 27.151c5.968-0.482 12.002-0.736 18.093-0.736 123.077 0 223.207 100.132 223.207 223.209s-100.13 223.207-223.207 223.207zM901.649 765.355h-114.104l57.020 98.763c29.453-24.675 50.22-59.356 57.084-98.763zM574.498 765.355c6.863 39.407 27.629 74.088 57.084 98.763l57.020-98.763h-114.104zM681 892.771c17.806 6.535 37.029 10.105 57.073 10.105s39.267-3.569 57.073-10.105l-57.073-98.854-57.073 98.854zM738.073 570.709c-3.569 0-7.1 0.152-10.614 0.377l13.621 103.377 54.069-93.649c-17.808-6.535-37.033-10.105-57.075-10.105zM844.565 609.468l-57.022 98.763h114.104c-6.861-39.407-27.629-74.088-57.082-98.763z" />
<glyph unicode="&#xe913;" glyph-name="lemonade-1" d="M705.486 960h-674.168c-12.33 0-21.734-10.867-20.271-22.988l34.691-285.675 85.264-697.574c1.672-9.822 9.822-17.763 19.435-17.763h436.14c9.822 0 18.599 7.314 19.435 17.763l86.1 697.574 34.9 284.212c1.672 12.957-8.359 24.451-21.525 24.451zM653.868 674.116h-570.723l-30.093 246.178h630.909l-30.093-246.178zM745.819 496.274c-11.285 0-21.943-0.836-32.392-2.508l-6.478-56.007c15.882 5.851 25.913-3.971 25.913-11.285v-134.792c0-16.509-13.584-18.599-21.943-8.986l-20.271 20.271-3.971-35.736c0 0 12.957-9.404 7.314-19.435-1.672-4.807-5.642-7.314-10.658-8.15l-4.807-26.749c0 0 11.285 1.672 14.629-8.15 1.672-5.224 0.836-10.658-2.508-14.629l-16.3-16.3-5.642-45.558 41.378 41.378c4.18 7.523 21.943 6.269 21.943-8.986v-134.792c0.627-6.269-5.016-13.375-13.793-12.957-21.943 3.344-42.214 8.986-61.649 17.763v-0.836l-6.478-54.335c30.093-11.285 62.485-17.763 95.922-17.763 147.749 0 267.076 120.999 267.076 269.584-0.209 147.958-119.536 268.957-267.285 268.957zM915.51 357.512c22.779-30.093 36.571-64.993 41.378-102.4 0.836-3.971-2.299-13.793-12.957-13.793h-133.956c-14.002 0-20.898 11.494-9.822 22.779l94.25 95.086c11.494 5.851 18.599 1.463 21.107-1.672zM759.612 427.311c1.463 14.42 14.629 12.957 14.629 12.957 36.571-4.807 71.471-19.435 100.728-42.214 3.344-2.508 8.777-10.867 0.836-20.271l-94.25-95.086c-9.404-9.613-21.734-3.553-21.943 8.986v135.628zM731.817 212.898c-0.209 1.672-2.299 8.15-5.642 13.793 4.18 6.478 4.807 11.285 5.642 13.793 4.807 0.836 9.822 3.135 13.793 5.642 3.971-2.508 8.986-4.807 13.793-5.642 1.045-6.478 5.016-13.166 5.642-13.793-1.672-2.508-4.389-7.523-5.642-13.793-4.807-1.672-9.822-3.344-13.793-5.642-3.971 2.508-8.777 4.807-13.793 5.642zM874.759 55.327c-29.257-22.779-64.157-37.407-100.728-42.214-6.896-0.627-14.629 5.433-14.629 12.957v134.792c0 13.584 12.121 18.808 21.943 8.986l94.25-95.086c2.508-2.299 8.359-13.584-0.836-19.435zM915.51 95.869c-6.478-7.732-12.957-6.687-18.599-1.672l-95.086 95.922c-11.285 10.24-7.941 22.779 9.822 22.779h133.956c4.389 0 13.166-2.299 11.285-14.629-4.807-37.407-19.435-72.307-41.378-102.4z" />
<glyph unicode="&#xe914;" glyph-name="menu-1" d="M769.538 954.304c-7.88 5.626-17.93 7.266-27.040 4.102l-355.327-120.442h394.817v91.996c0 9.638-4.628 18.688-12.45 24.344zM511.999 537.977c-72.45 0-133.032-51.62-146.976-119.996h293.951c-13.942 68.376-74.526 119.996-146.976 119.996zM811.988 777.966h-599.977c-16.582 0-29.998-13.418-29.998-29.998v-781.968c0-16.582 13.418-29.998 29.998-29.998h599.975c16.582 0 29.998 13.418 29.998 29.998v781.966c0.002 16.582-13.416 30-29.996 30zM571.997 117.994h-119.996c-16.582 0-29.998 13.418-29.998 29.998 0 16.582 13.418 29.998 29.998 29.998h119.996c16.582 0 29.998-13.418 29.998-29.998 0.002-16.582-13.416-29.998-29.998-29.998zM631.995 237.987h-239.99c-16.582 0-29.998 13.418-29.998 29.998s13.418 29.998 29.998 29.998h239.99c16.582 0 29.998-13.418 29.998-29.998s-13.416-29.998-29.998-29.998zM691.993 357.983h-359.985c-16.582 0-29.998 13.418-29.998 29.998 0 105.504 78.498 192.244 179.992 206.96v33.030c0 16.582 13.418 29.998 29.998 29.998 16.582 0 29.998-13.418 29.998-29.998v-33.030c101.496-14.714 179.994-101.454 179.994-206.96 0-16.58-13.416-29.998-29.998-29.998z" />
<glyph unicode="&#xe915;" glyph-name="table-1" d="M972.8 601.6c-21.617-0.092-40.85-13.75-48.058-34.133h-75.25c-36.258 101.725-116.3 181.767-218.025 218.025v75.25c23.492 8.275 37.592 32.283 33.375 56.833-4.225 24.55-25.533 42.475-50.442 42.425h-204.8c-24.908 0.050-46.217-17.875-50.442-42.425-4.217-24.55 9.883-48.558 33.375-56.833v-75.25c-101.725-36.258-181.767-116.3-218.025-218.025h-75.25c-8.275 23.492-32.283 37.592-56.833 33.375-24.55-4.225-42.475-25.533-42.425-50.442v-204.8c-0.050-24.908 17.875-46.217 42.425-50.442 24.55-4.217 48.558 9.883 56.833 33.375h75.25c36.258-101.725 116.3-181.767 218.025-218.025v-75.25c-23.492-8.275-37.592-32.283-33.375-56.833 4.225-24.55 25.533-42.475 50.442-42.425h204.8c24.908-0.050 46.217 17.875 50.442 42.425 4.217 24.55-9.883 48.558-33.375 56.833v75.25c101.725 36.258 181.767 116.3 218.025 218.025h75.25c8.275-23.492 32.283-37.592 56.833-33.375 24.55 4.225 42.475 25.533 42.425 50.442v204.8c0 28.275-22.925 51.2-51.2 51.2zM409.6 925.867h204.8c9.425 0 17.067-7.642 17.067-17.067s-7.642-17.067-17.067-17.067h-204.8c-9.425 0-17.067 7.642-17.067 17.067s7.642 17.067 17.067 17.067zM426.667 857.6h170.667v-61.9c-55.992 14.267-114.675 14.267-170.667 0zM51.2 328.533c-9.425 0-17.067 7.642-17.067 17.067v204.8c0 9.425 7.642 17.067 17.067 17.067s17.067-7.642 17.067-17.067v-204.8c0-9.425-7.642-17.067-17.067-17.067zM102.4 362.667v170.667h61.9c-14.267-55.992-14.267-114.675 0-170.667zM614.4-29.866h-204.8c-9.425 0-17.067 7.642-17.067 17.067s7.642 17.067 17.067 17.067h204.8c9.425 0 17.067-7.642 17.067-17.067s-7.642-17.067-17.067-17.067zM597.333 38.4h-170.667v61.9c55.992-14.267 114.675-14.267 170.667 0zM512 123.733c-179.083 0-324.267 145.175-324.267 324.267 0 179.083 145.183 324.267 324.267 324.267 179.092 0 324.267-145.183 324.267-324.267-0.2-179.008-145.258-324.067-324.267-324.267zM859.7 533.333h61.9v-170.667h-61.9c14.267 55.992 14.267 114.675 0 170.667zM989.866 345.6c0-9.425-7.642-17.067-17.067-17.067s-17.067 7.642-17.067 17.067v204.8c0 9.425 7.642 17.067 17.067 17.067s17.067-7.642 17.067-17.067zM512 669.867c-122.533 0-221.867-99.333-221.867-221.867s99.333-221.867 221.867-221.867 221.867 99.333 221.867 221.867c-0.142 122.475-99.392 221.725-221.867 221.867zM512 260.267c-103.683 0-187.733 84.050-187.733 187.733s84.050 187.733 187.733 187.733 187.733-84.050 187.733-187.733c-0.125-103.633-84.1-187.608-187.733-187.733z" />
<glyph unicode="&#xe916;" glyph-name="tray-1" d="M904.772 353.531c-17.252 19.95-47.38 22.482-67.734 5.536l-140.93-117.338c-27.194-22.64-61.46-35.038-96.844-35.038h-166.63c-25.062 0-45.38 20.316-45.38 45.38 0 25.062 20.316 45.38 45.38 45.38h159.956c25.062 0 45.38 20.316 45.38 45.38 0 25.062-20.316 45.38-45.38 45.38h-265.563c-50.928 0-97.974-27.234-123.336-71.4l-20.332-35.408c-14.024-24.422-31.442-46.73-51.732-66.262l-83.174-80.056 119.818-199.084 80.298 75.084c20.356 19.034 47.182 29.622 75.050 29.622h211.834c49.828 0 98.030 17.734 135.978 50.026l226.724 192.942c20.898 17.404 24.406 49.284 6.616 69.856zM901.98 525.519c-15.098 169.78-141.544 308.013-305.631 340.953 1.142 5.268 1.756 10.732 1.756 16.336 0 42.564-34.626 77.192-77.188 77.192s-77.188-34.628-77.188-77.19c0-5.606 0.614-11.068 1.756-16.336-164.084-32.942-290.531-171.176-305.629-340.955h-73.57v-68.336h909.264v68.336h-73.57z" />
<glyph unicode="&#xe917;" glyph-name="wheel-1" d="M242 88c0-85.516 116.070-152 270-152s270 66.484 270 152c0 59.836-58.625 110.367-150 134.641v-44.641c0-66.18-53.82-120-120-120s-120 53.82-120 120v44.641c-91.375-24.273-150-74.805-150-134.641zM512 538c281.664 0 512 94.023 512 210s-230.336 212-512 212-512-96.023-512-212 230.336-210 512-210zM0 620.984v-52.984c0-154.836 265.438-210 512-210s512 55.164 512 210v52.984c-98.586-94.117-306.922-142.984-512-142.984s-413.414 48.867-512 142.984zM572 178v121.078c-19.555-0.656-39.477-1.078-60-1.078s-40.445 0.422-60 1.078v-121.078c0-33.141 26.859-60 60-60s60 26.859 60 60z" />
<glyph unicode="&#xe918;" glyph-name="take-away" d="M609.71 960h-173.656c-49.87 0-88.94-41.294-88.94-91.164v-51.144h77.344v51.144c0 7.224 4.374 13.822 11.598 13.822h173.656c7.224 0 12.74-6.598 12.74-13.822v-51.144h77.342v51.144c0 49.87-40.212 91.164-90.084 91.164zM925.068 640.366l-75.996-566.668 138.862 98.134zM138.128 771.286l-102.062-723.914h232.612l-35.598 392.894h-13.408c-12.818 0-23.202 10.388-23.202 23.202s10.386 23.202 23.202 23.202h180.336c0.176 3.094 0.396 1.968 0.652 2.722l59.324 173.182c3.218 9.376 12.038 15.902 21.95 15.902h78.65c12.818 0 23.202-10.388 23.202-23.202s-10.386-23.202-23.202-23.202h-62.078l-49.56-145.402h174.606c12.818 0 23.202-10.388 23.202-23.202s-10.386-23.202-23.202-23.202h-13.408l-35.598-392.894h224.254c0.028 0.476 0.050 0.952 0.114 1.436l96.556 719.974c0.114 0.854 0.282 1.69 0.482 2.506h-757.824zM279.672 440.266l45.582-504.266h192.704l45.582 504.266z" />
<glyph unicode="&#xe91f;" glyph-name="book" d="M896 832v-832h-672c-53.026 0-96 42.98-96 96s42.974 96 96 96h608v768h-640c-70.398 0-128-57.6-128-128v-768c0-70.4 57.602-128 128-128h768v896h-64zM224.056 128v0c-0.018-0.002-0.038 0-0.056 0-17.672 0-32-14.326-32-32s14.328-32 32-32c0.018 0 0.038 0.002 0.056 0.002v-0.002h607.89v64h-607.89z" />
<glyph unicode="&#xe922;" glyph-name="file-text" d="M864 960h-768c-52.8 0-96-43.2-96-96v-832c0-52.8 43.2-96 96-96h768c52.8 0 96 43.2 96 96v832c0 52.8-43.2 96-96 96zM832 64h-704v768h704v-768zM256 512h448v-64h-448zM256 384h448v-64h-448zM256 256h448v-64h-448zM256 640h448v-64h-448z" />
<glyph unicode="&#xe951;" glyph-name="bell" d="M1025.5 160c0 288-256 224-256 448 0 18.56-1.788 34.42-5.048 47.928-16.83 113.018-92.156 203.72-189.772 231.36 0.866 3.948 1.32 8.032 1.32 12.21 0 33.278-28.8 60.502-64 60.502s-64-27.224-64-60.5c0-4.18 0.456-8.264 1.32-12.21-109.47-30.998-190.914-141.298-193.254-273.442-0.040-1.92-0.066-3.864-0.066-5.846 0-224.002-256-160.002-256-448.002 0-76.226 170.59-139.996 398.97-156.080 21.524-40.404 64.056-67.92 113.030-67.92s91.508 27.516 113.030 67.92c228.38 16.084 398.97 79.854 398.97 156.080 0 0.228-0.026 0.456-0.028 0.682l1.528-0.682zM826.246 105.904c-54.23-14.47-118.158-24.876-186.768-30.648-5.704 65.418-60.582 116.744-127.478 116.744s-121.774-51.326-127.478-116.744c-68.608 5.772-132.538 16.178-186.768 30.648-74.63 19.914-110.31 42.19-123.368 54.096 13.058 11.906 48.738 34.182 123.368 54.096 86.772 23.152 198.372 35.904 314.246 35.904s227.474-12.752 314.246-35.904c74.63-19.914 110.31-42.19 123.368-54.096-13.058-11.906-48.738-34.182-123.368-54.096z" />
<glyph unicode="&#xe971;" glyph-name="user" d="M576 253.388v52.78c70.498 39.728 128 138.772 128 237.832 0 159.058 0 288-192 288s-192-128.942-192-288c0-99.060 57.502-198.104 128-237.832v-52.78c-217.102-17.748-384-124.42-384-253.388h896c0 128.968-166.898 235.64-384 253.388z" />
<glyph unicode="&#xe973;" glyph-name="user-plus" d="M384 224c0 151.234 95.874 280.486 230.032 330.2 16.28 36.538 25.968 77.164 25.968 117.8 0 159.058 0 288-192 288s-192-128.942-192-288c0-99.060 57.502-198.104 128-237.832v-52.78c-217.102-17.748-384-124.42-384-253.388h397.306c-8.664 30.53-13.306 62.732-13.306 96zM736 512c-159.058 0-288-128.942-288-288s128.942-288 288-288c159.056 0 288 128.942 288 288s-128.942 288-288 288zM896 192h-128v-128h-64v128h-128v64h128v128h64v-128h128v-64z" />
<glyph unicode="&#xe976;" glyph-name="user-tie" d="M320 768c0 106.039 85.961 192 192 192s192-85.961 192-192c0-106.039-85.961-192-192-192s-192 85.961-192 192zM768.078 512h-35.424l-199.104-404.244 74.45 372.244-96 96-96-96 74.45-372.244-199.102 404.244h-35.424c-127.924 0-127.924-85.986-127.924-192v-320h768v320c0 106.014 0 192-127.922 192z" />
<glyph unicode="&#xe98f;" glyph-name="lock" d="M592 512h-16v192c0 105.87-86.13 192-192 192h-128c-105.87 0-192-86.13-192-192v-192h-16c-26.4 0-48-21.6-48-48v-480c0-26.4 21.6-48 48-48h544c26.4 0 48 21.6 48 48v480c0 26.4-21.6 48-48 48zM192 704c0 35.29 28.71 64 64 64h128c35.29 0 64-28.71 64-64v-192h-256v192z" />
<glyph unicode="&#xe990;" glyph-name="unlocked" d="M768 896c105.87 0 192-86.13 192-192v-192h-128v192c0 35.29-28.71 64-64 64h-128c-35.29 0-64-28.71-64-64v-192h16c26.4 0 48-21.6 48-48v-480c0-26.4-21.6-48-48-48h-544c-26.4 0-48 21.6-48 48v480c0 26.4 21.6 48 48 48h400v192c0 105.87 86.13 192 192 192h128z" />
<glyph unicode="&#xe995;" glyph-name="cogs" d="M363.722 237.948l41.298 57.816-45.254 45.256-57.818-41.296c-10.722 5.994-22.204 10.774-34.266 14.192l-11.682 70.084h-64l-11.68-70.086c-12.062-3.418-23.544-8.198-34.266-14.192l-57.818 41.298-45.256-45.256 41.298-57.816c-5.994-10.72-10.774-22.206-14.192-34.266l-70.086-11.682v-64l70.086-11.682c3.418-12.060 8.198-23.544 14.192-34.266l-41.298-57.816 45.254-45.256 57.818 41.296c10.722-5.994 22.204-10.774 34.266-14.192l11.682-70.084h64l11.68 70.086c12.062 3.418 23.544 8.198 34.266 14.192l57.818-41.296 45.254 45.256-41.298 57.816c5.994 10.72 10.774 22.206 14.192 34.266l70.088 11.68v64l-70.086 11.682c-3.418 12.060-8.198 23.544-14.192 34.266zM224 96c-35.348 0-64 28.654-64 64s28.652 64 64 64 64-28.654 64-64-28.652-64-64-64zM1024 576v64l-67.382 12.25c-1.242 8.046-2.832 15.978-4.724 23.79l57.558 37.1-24.492 59.128-66.944-14.468c-4.214 6.91-8.726 13.62-13.492 20.13l39.006 56.342-45.256 45.254-56.342-39.006c-6.512 4.766-13.22 9.276-20.13 13.494l14.468 66.944-59.128 24.494-37.1-57.558c-7.812 1.892-15.744 3.482-23.79 4.724l-12.252 67.382h-64l-12.252-67.382c-8.046-1.242-15.976-2.832-23.79-4.724l-37.098 57.558-59.128-24.492 14.468-66.944c-6.91-4.216-13.62-8.728-20.13-13.494l-56.342 39.006-45.254-45.254 39.006-56.342c-4.766-6.51-9.278-13.22-13.494-20.13l-66.944 14.468-24.492-59.128 57.558-37.1c-1.892-7.812-3.482-15.742-4.724-23.79l-67.384-12.252v-64l67.382-12.25c1.242-8.046 2.832-15.978 4.724-23.79l-57.558-37.1 24.492-59.128 66.944 14.468c4.216-6.91 8.728-13.618 13.494-20.13l-39.006-56.342 45.254-45.256 56.342 39.006c6.51-4.766 13.22-9.276 20.13-13.492l-14.468-66.944 59.128-24.492 37.102 57.558c7.81-1.892 15.742-3.482 23.788-4.724l12.252-67.384h64l12.252 67.382c8.044 1.242 15.976 2.832 23.79 4.724l37.1-57.558 59.128 24.492-14.468 66.944c6.91 4.216 13.62 8.726 20.13 13.492l56.342-39.006 45.256 45.256-39.006 56.342c4.766 6.512 9.276 13.22 13.492 20.13l66.944-14.468 24.492 59.13-57.558 37.1c1.892 7.812 3.482 15.742 4.724 23.79l67.382 12.25zM672 468.8c-76.878 0-139.2 62.322-139.2 139.2s62.32 139.2 139.2 139.2 139.2-62.322 139.2-139.2c0-76.878-62.32-139.2-139.2-139.2z" />
<glyph unicode="&#xe9ac;" glyph-name="bin" d="M128 640v-640c0-35.2 28.8-64 64-64h576c35.2 0 64 28.8 64 64v640h-704zM320 64h-64v448h64v-448zM448 64h-64v448h64v-448zM576 64h-64v448h64v-448zM704 64h-64v448h64v-448zM848 832h-208v80c0 26.4-21.6 48-48 48h-224c-26.4 0-48-21.6-48-48v-80h-208c-26.4 0-48-21.6-48-48v-80h832v80c0 26.4-21.6 48-48 48zM576 832h-192v63.198h192v-63.198z" />
<glyph unicode="&#xea0a;" glyph-name="plus" d="M992 576h-352v352c0 17.672-14.328 32-32 32h-192c-17.672 0-32-14.328-32-32v-352h-352c-17.672 0-32-14.328-32-32v-192c0-17.672 14.328-32 32-32h352v-352c0-17.672 14.328-32 32-32h192c17.672 0 32 14.328 32 32v352h352c17.672 0 32 14.328 32 32v192c0 17.672-14.328 32-32 32z" />
<glyph unicode="&#xea0b;" glyph-name="minus" d="M0 544v-192c0-17.672 14.328-32 32-32h960c17.672 0 32 14.328 32 32v192c0 17.672-14.328 32-32 32h-960c-17.672 0-32-14.328-32-32z" />
<glyph unicode="&#xea0f;" glyph-name="cross" d="M1014.662 137.34c-0.004 0.004-0.008 0.008-0.012 0.010l-310.644 310.65 310.644 310.65c0.004 0.004 0.008 0.006 0.012 0.010 3.344 3.346 5.762 7.254 7.312 11.416 4.246 11.376 1.824 24.682-7.324 33.83l-146.746 146.746c-9.148 9.146-22.45 11.566-33.828 7.32-4.16-1.55-8.070-3.968-11.418-7.31 0-0.004-0.004-0.006-0.008-0.010l-310.648-310.652-310.648 310.65c-0.004 0.004-0.006 0.006-0.010 0.010-3.346 3.342-7.254 5.76-11.414 7.31-11.38 4.248-24.682 1.826-33.83-7.32l-146.748-146.748c-9.148-9.148-11.568-22.452-7.322-33.828 1.552-4.16 3.97-8.072 7.312-11.416 0.004-0.002 0.006-0.006 0.010-0.010l310.65-310.648-310.65-310.652c-0.002-0.004-0.006-0.006-0.008-0.010-3.342-3.346-5.76-7.254-7.314-11.414-4.248-11.376-1.826-24.682 7.322-33.83l146.748-146.746c9.15-9.148 22.452-11.568 33.83-7.322 4.16 1.552 8.070 3.97 11.416 7.312 0.002 0.004 0.006 0.006 0.010 0.010l310.648 310.65 310.648-310.65c0.004-0.002 0.008-0.006 0.012-0.008 3.348-3.344 7.254-5.762 11.414-7.314 11.378-4.246 24.684-1.826 33.828 7.322l146.746 146.748c9.148 9.148 11.57 22.454 7.324 33.83-1.552 4.16-3.97 8.068-7.314 11.414z" />
<glyph unicode="&#xea10;" glyph-name="checkmark" d="M864 832l-480-480-224 224-160-160 384-384 640 640z" />
<glyph unicode="&#xea13;" glyph-name="enter" d="M384 448h-320v128h320v128l192-192-192-192zM1024 960v-832l-384-192v192h-384v256h64v-192h320v576l256 128h-576v-256h-64v320z" />
<glyph unicode="&#xea14;" glyph-name="exit" d="M768 320v128h-320v128h320v128l192-192zM704 384v-256h-320v-192l-384 192v832h704v-320h-64v256h-512l256-128v-576h256v192z" />
<glyph unicode="&#xea43;" glyph-name="circle-down" d="M1024 448c0 282.77-229.23 512-512 512s-512-229.23-512-512 229.23-512 512-512 512 229.23 512 512zM96 448c0 229.75 186.25 416 416 416s416-186.25 416-416-186.25-416-416-416-416 186.25-416 416zM317.256 605.256l-90.512-90.512 285.256-285.254 285.254 285.256-90.508 90.508-194.746-194.744z" />
</font>
</defs>
</svg>
